<svg version="1.1" xmlns="http://www.w3.org/2000/svg" xmlns:xlink="http://www.w3.org/1999/xlink" width="574" height="379.29959" viewBox="0,0,574,379.29959"><g transform="translate(45.4985,-56.79803)"><g data-paper-data="{&quot;isPaintingLayer&quot;:true}" fill-rule="nonzero" stroke-linejoin="miter" stroke-miterlimit="10" stroke-dasharray="" stroke-dashoffset="0" style="mix-blend-mode: normal"><path d="M-20.74925,436.09761v-154.65465h500v154.65466z" data-paper-data="{&quot;index&quot;:null}" fill="#00ff15" stroke="none" stroke-width="0" stroke-linecap="butt"/><path d="M-45.4985,410.14265v-97h574v97z" data-paper-data="{&quot;index&quot;:null}" fill="#a55800" stroke="none" stroke-width="0" stroke-linecap="butt"/><path d="M264.77477,282.1021v-57.05706h213.21321v57.05706z" data-paper-data="{&quot;index&quot;:null}" fill="#9966ff" stroke="#9465ff" stroke-width="2" stroke-linecap="butt"/><text transform="translate(185,111) scale(0.5,0.5)" font-size="40" xml:space="preserve" data-paper-data="{&quot;index&quot;:null}" fill="#000000" fill-rule="nonzero" stroke="none" stroke-width="1" stroke-linecap="butt" stroke-linejoin="miter" stroke-miterlimit="10" stroke-dasharray="" stroke-dashoffset="0" font-family="Sans Serif" font-weight="normal" text-anchor="start" style="mix-blend-mode: normal"><tspan x="0" dy="0">Level 2</tspan></text><path d="M426.43643,224.7157v-152.15216h55.30532v152.15216z" fill="#000000" stroke="none" stroke-width="0" stroke-linecap="butt"/><path d="M379.63964,99.09007v-40.54054h100.6006v40.54054z" fill="#000000" stroke="none" stroke-width="0" stroke-linecap="butt"/><path d="M289.55255,229.12311v-31.53154h88.58859v31.53154z" fill="#000000" stroke="none" stroke-width="0" stroke-linecap="butt"/><path d="M388.64865,57.04803l-61.56156,43.54354" fill="none" stroke="#000000" stroke-width="0.5" stroke-linecap="round"/><path d="M351.11111,133.6186v-48.04204h90.09009v48.04204z" fill="#9966ff" stroke="#9465ff" stroke-width="2" stroke-linecap="butt"/><path d="M361.62162,117.10809v-40.54054h55.55556v40.54054z" fill="#9966ff" stroke="#9465ff" stroke-width="2" stroke-linecap="butt"/><path d="M374.12913,111.59758v-40.54054h55.55555v40.54054z" fill="#9966ff" stroke="#9465ff" stroke-width="2" stroke-linecap="butt"/><path d="M338.58859,132.42422v-38.34916h52.55255v38.34916z" fill="#9966ff" stroke="#9465ff" stroke-width="2" stroke-linecap="butt"/><path d="M182.55255,144.12311v-31.53154h88.58859v31.53154z" fill="#000000" stroke="none" stroke-width="0" stroke-linecap="butt"/><path d="M330.55255,132.12311v-31.53154h88.58859v31.53154z" fill="#000000" stroke="none" stroke-width="0" stroke-linecap="butt"/></g></g></svg>