<svg version="1.1" xmlns="http://www.w3.org/2000/svg" xmlns:xlink="http://www.w3.org/1999/xlink" width="574" height="436.93771" viewBox="0,0,574,436.93771"><g transform="translate(45.4985,0.84009)"><g data-paper-data="{&quot;isPaintingLayer&quot;:true}" fill-rule="nonzero" stroke-linejoin="miter" stroke-miterlimit="10" stroke-dasharray="" stroke-dashoffset="0" style="mix-blend-mode: normal"><path d="M3.75225,436.09762v-154.65466h500v154.65465z" data-paper-data="{&quot;index&quot;:null}" fill="#00ff15" stroke="none" stroke-width="0" stroke-linecap="butt"/><path d="M-45.4985,410.14265v-97h574v97z" data-paper-data="{&quot;index&quot;:null}" fill="#a55800" stroke="none" stroke-width="0" stroke-linecap="butt"/><path d="M5.01502,282.1021v-57.05706h213.21321v57.05706z" data-paper-data="{&quot;index&quot;:null}" fill="#9966ff" stroke="#9465ff" stroke-width="2" stroke-linecap="butt"/><text transform="translate(268.23907,20.90991) scale(0.5,0.5)" font-size="40" xml:space="preserve" data-paper-data="{&quot;index&quot;:null}" fill="#000000" fill-rule="nonzero" stroke="none" stroke-width="1" stroke-linecap="butt" stroke-linejoin="miter" stroke-miterlimit="10" stroke-dasharray="" stroke-dashoffset="0" font-family="Sans Serif" font-weight="normal" text-anchor="start" style="mix-blend-mode: normal"><tspan x="0" dy="0">Level 3</tspan></text><path d="M1.26125,224.7157v-152.15216h55.30532v152.15216z" data-paper-data="{&quot;index&quot;:null}" fill="#000000" stroke="none" stroke-width="0" stroke-linecap="butt"/><path d="M2.76276,99.09007v-40.54054h100.6006v40.54054z" data-paper-data="{&quot;index&quot;:null}" fill="#000000" stroke="none" stroke-width="0" stroke-linecap="butt"/><path d="M94.35435,57.04803l61.56156,43.54354" data-paper-data="{&quot;index&quot;:null}" fill="none" stroke="#000000" stroke-width="0.5" stroke-linecap="round"/><path d="M41.8018,133.6186v-48.04204h90.09009v48.04204z" data-paper-data="{&quot;index&quot;:null}" fill="#9966ff" stroke="#9465ff" stroke-width="2" stroke-linecap="butt"/><path d="M65.82582,117.10809v-40.54054h55.55556v40.54054z" data-paper-data="{&quot;index&quot;:null}" fill="#9966ff" stroke="#9465ff" stroke-width="2" stroke-linecap="butt"/><path d="M53.31832,111.59758v-40.54054h55.55555v40.54054z" data-paper-data="{&quot;index&quot;:null}" fill="#9966ff" stroke="#9465ff" stroke-width="2" stroke-linecap="butt"/><path d="M91.86186,132.42422v-38.34916h52.55255v38.34916z" data-paper-data="{&quot;index&quot;:null}" fill="#9966ff" stroke="#9465ff" stroke-width="2" stroke-linecap="butt"/><path d="M63.86186,132.12311v-31.53154h88.58859v31.53154z" data-paper-data="{&quot;index&quot;:null}" fill="#000000" stroke="none" stroke-width="0" stroke-linecap="butt"/><path d="M55.81081,138.6246v-40.54054h100.6006v40.54054z" data-paper-data="{&quot;index&quot;:null}" fill="#000000" stroke="none" stroke-width="0" stroke-linecap="butt"/><path d="M208.96396,140.1261l-61.56156,-43.54354" data-paper-data="{&quot;index&quot;:null}" fill="none" stroke="#000000" stroke-width="0.5" stroke-linecap="round"/><path d="M94.84985,173.15313v-48.04204h90.09009v48.04204z" data-paper-data="{&quot;index&quot;:null}" fill="#9966ff" stroke="#9465ff" stroke-width="2" stroke-linecap="butt"/><path d="M118.87387,156.64262v-40.54054h55.55556v40.54054z" data-paper-data="{&quot;index&quot;:null}" fill="#9966ff" stroke="#9465ff" stroke-width="2" stroke-linecap="butt"/><path d="M106.36637,151.13211v-40.54054h55.55555v40.54054z" data-paper-data="{&quot;index&quot;:null}" fill="#9966ff" stroke="#9465ff" stroke-width="2" stroke-linecap="butt"/><path d="M144.90991,171.95875v-38.34916h52.55255v38.34916z" data-paper-data="{&quot;index&quot;:null}" fill="#9966ff" stroke="#9465ff" stroke-width="2" stroke-linecap="butt"/><path d="M116.90991,171.65764v-31.53154h88.58859v31.53154z" data-paper-data="{&quot;index&quot;:null}" fill="#000000" stroke="none" stroke-width="0" stroke-linecap="butt"/><path d="M108.85886,178.15914v-40.54054h100.6006v40.54054z" data-paper-data="{&quot;index&quot;:null}" fill="#000000" stroke="none" stroke-width="0" stroke-linecap="butt"/><path d="M262.01201,179.66064l-61.56156,-43.54354" data-paper-data="{&quot;index&quot;:null}" fill="none" stroke="#000000" stroke-width="0.5" stroke-linecap="round"/><path d="M147.8979,212.68767v-48.04204h90.09009v48.04204z" data-paper-data="{&quot;index&quot;:null}" fill="#9966ff" stroke="#9465ff" stroke-width="2" stroke-linecap="butt"/><path d="M171.92192,196.17716v-40.54054h55.55556v40.54054z" data-paper-data="{&quot;index&quot;:null}" fill="#9966ff" stroke="#9465ff" stroke-width="2" stroke-linecap="butt"/><path d="M159.41442,190.66665v-40.54054h55.55555v40.54054z" data-paper-data="{&quot;index&quot;:null}" fill="#9966ff" stroke="#9465ff" stroke-width="2" stroke-linecap="butt"/><path d="M197.95796,211.49329v-38.34916h52.55255v38.34916z" data-paper-data="{&quot;index&quot;:null}" fill="#9966ff" stroke="#9465ff" stroke-width="2" stroke-linecap="butt"/><path d="M169.95796,211.19218v-31.53154h88.58859v31.53154z" data-paper-data="{&quot;index&quot;:null}" fill="#000000" stroke="none" stroke-width="0" stroke-linecap="butt"/><path d="M163.40841,219.19518v-40.54054h100.6006v40.54054z" data-paper-data="{&quot;index&quot;:null}" fill="#000000" stroke="none" stroke-width="0" stroke-linecap="butt"/><path d="M316.56156,220.69668l-61.56156,-43.54354" data-paper-data="{&quot;index&quot;:null}" fill="none" stroke="#000000" stroke-width="0.5" stroke-linecap="round"/><path d="M202.44745,253.72371v-48.04204h90.09009v48.04204z" data-paper-data="{&quot;index&quot;:null}" fill="#9966ff" stroke="#9465ff" stroke-width="2" stroke-linecap="butt"/><path d="M226.47147,237.2132v-40.54054h55.55556v40.54054z" data-paper-data="{&quot;index&quot;:null}" fill="#9966ff" stroke="#9465ff" stroke-width="2" stroke-linecap="butt"/><path d="M213.96397,231.70269v-40.54054h55.55555v40.54054z" data-paper-data="{&quot;index&quot;:null}" fill="#9966ff" stroke="#9465ff" stroke-width="2" stroke-linecap="butt"/><path d="M252.50751,252.52933v-38.34916h52.55255v38.34916z" data-paper-data="{&quot;index&quot;:null}" fill="#9966ff" stroke="#9465ff" stroke-width="2" stroke-linecap="butt"/><path d="M224.50751,252.22822v-31.53154h88.58859v31.53154z" data-paper-data="{&quot;index&quot;:null}" fill="#000000" stroke="none" stroke-width="0" stroke-linecap="butt"/><path d="M211.95195,257.22821v-40.54054h100.6006v40.54054z" data-paper-data="{&quot;index&quot;:null}" fill="#000000" stroke="none" stroke-width="0" stroke-linecap="butt"/><path d="M303.54354,215.18617l61.56156,43.54354" data-paper-data="{&quot;index&quot;:null}" fill="none" stroke="#000000" stroke-width="0.5" stroke-linecap="round"/><path d="M250.99099,291.75674v-48.04204h90.09009v48.04204z" data-paper-data="{&quot;index&quot;:null}" fill="#9966ff" stroke="#9465ff" stroke-width="2" stroke-linecap="butt"/><path d="M275.01501,275.24623v-40.54054h55.55556v40.54054z" data-paper-data="{&quot;index&quot;:null}" fill="#9966ff" stroke="#9465ff" stroke-width="2" stroke-linecap="butt"/><path d="M262.50751,269.73572v-40.54054h55.55555v40.54054z" data-paper-data="{&quot;index&quot;:null}" fill="#9966ff" stroke="#9465ff" stroke-width="2" stroke-linecap="butt"/><path d="M301.05105,290.56236v-38.34916h52.55255v38.34916z" data-paper-data="{&quot;index&quot;:null}" fill="#9966ff" stroke="#9465ff" stroke-width="2" stroke-linecap="butt"/><path d="M273.05105,290.26125v-31.53154h88.58859v31.53154z" data-paper-data="{&quot;index&quot;:null}" fill="#000000" stroke="none" stroke-width="0" stroke-linecap="butt"/><path d="M252.98799,290.75674v-40.54054h100.6006v40.54054z" data-paper-data="{&quot;index&quot;:null}" fill="#000000" stroke="none" stroke-width="0" stroke-linecap="butt"/><path d="M406.14114,292.25824l-61.56156,-43.54354" data-paper-data="{&quot;index&quot;:null}" fill="none" stroke="#000000" stroke-width="0.5" stroke-linecap="round"/><path d="M292.02703,325.28527v-48.04204h90.09009v48.04204z" data-paper-data="{&quot;index&quot;:null}" fill="#9966ff" stroke="#9465ff" stroke-width="2" stroke-linecap="butt"/><path d="M316.05105,308.77476v-40.54054h55.55556v40.54054z" data-paper-data="{&quot;index&quot;:null}" fill="#9966ff" stroke="#9465ff" stroke-width="2" stroke-linecap="butt"/><path d="M303.54355,303.26425v-40.54054h55.55555v40.54054z" data-paper-data="{&quot;index&quot;:null}" fill="#9966ff" stroke="#9465ff" stroke-width="2" stroke-linecap="butt"/><path d="M342.08709,324.09089v-38.34916h52.55255v38.34916z" data-paper-data="{&quot;index&quot;:null}" fill="#9966ff" stroke="#9465ff" stroke-width="2" stroke-linecap="butt"/><path d="M314.08709,323.78978v-31.53154h88.58859v31.53154z" data-paper-data="{&quot;index&quot;:null}" fill="#000000" stroke="none" stroke-width="0" stroke-linecap="butt"/></g></g></svg>