<svg version="1.1" xmlns="http://www.w3.org/2000/svg" xmlns:xlink="http://www.w3.org/1999/xlink" width="319.86327" height="139.37509" viewBox="0,0,319.86327,139.37509"><defs><linearGradient x1="80.0681" y1="179.9992" x2="399.93137" y2="179.9992" gradientUnits="userSpaceOnUse" id="color-1"><stop offset="0" stop-color="#fbb040"/><stop offset="1" stop-color="#f15a29"/></linearGradient><linearGradient x1="89.27856" y1="188.18104" x2="385.13369" y2="188.18104" gradientUnits="userSpaceOnUse" id="color-2"><stop offset="0" stop-color="#ed7340"/><stop offset="0.5181" stop-color="#f4aa46"/><stop offset="1" stop-color="#f29746"/></linearGradient></defs><g transform="translate(-80.06837,-110.31246)"><g data-paper-data="{&quot;isPaintingLayer&quot;:true}" fill-rule="nonzero" stroke="none" stroke-width="1" stroke-linecap="butt" stroke-linejoin="miter" stroke-miterlimit="10" stroke-dasharray="" stroke-dashoffset="0" style="mix-blend-mode: normal"><path d="M399.93163,180c0,38.42357 -31.26663,69.68754 -69.69287,69.68754h-180.48551c-38.42357,0 -69.68488,-31.2613 -69.68488,-69.68754c0,-38.42624 31.25864,-69.68754 69.68488,-69.68754h180.48551c38.42624,0 69.69021,31.25864 69.69287,69.68754z" fill="url(#color-1)"/><path d="M385.13396,188.17917c0,31.86105 -25.82629,57.68467 -57.68734,57.68467h-180.48551c-31.85838,0 -57.68201,-25.82363 -57.68201,-57.68467v0c0,-31.85572 25.82363,-57.68201 57.68201,-57.68201h180.48551c31.85838,0 57.68734,25.82629 57.68734,57.68201z" fill="url(#color-2)"/><text transform="translate(131.91541,211.29428) scale(1.80141,1.80141)" font-size="40" xml:space="preserve" fill="#ffffff" fill-rule="nonzero" stroke="none" stroke-width="1" stroke-linecap="butt" stroke-linejoin="miter" stroke-miterlimit="10" stroke-dasharray="" stroke-dashoffset="0" font-family="Pixel" font-weight="normal" text-anchor="start" style="mix-blend-mode: normal"><tspan x="0" dy="0">PLAY</tspan></text></g></g></svg>